<svg xmlns="http://www.w3.org/2000/svg" viewBox="0 0 2200 2200">
  <path fill="#e8e5ff" d="M0 0h2200v2200H0z"/>
  <path fill="none" stroke="#230aff" stroke-linecap="round" d="M0 110h0c56-4 111-7 159-6s88 8 135 10 99 1 152-4 106-12 156-10 96 14 139 13 82-16 125-12 90 26 146 26 123-22 173-27 84 7 133 12 112 5 161 6 85 4 135 9 114 11 161 4 77-26 120-27 99 15 152 19 103-5 193-13"/>
  <path fill="none" stroke="#3119ff" stroke-linecap="round" d="M0 220h0c44-6 87-13 134-10s97 15 148 13 103-20 149-20 88 17 142 20 122-10 171-12 80 6 122 5 94-12 146-10 102 15 158 16 116-10 166-13 90 3 136 1 98-11 151-3 108 32 151 37 76-10 124-16 113-3 166-3 95-2 176-5"/>
  <path fill="none" stroke="#9184ff" stroke-linecap="round" d="M0 330h0c49 6 97 12 146 12s98-5 149-5 104 5 150 8 84 6 135 1 114-16 169-23 103-9 144-12 74-5 123 6 113 36 164 36 90-25 139-34 107-1 155 9 85 23 131 18 101-27 149-28 90 21 140 21 108-20 160-25 99 6 186 16"/>
  <path fill="none" stroke="#513dff" stroke-linecap="round" d="M0 440h0c53-1 106-2 154-5l140-8c49-2 106-1 150-3s77-6 127-8 116-3 171 5 97 23 139 27 84-4 136-10 116-12 166-10 87 10 133 17 102 12 154 16 102 9 150 0 94-30 138-32 84 15 136 17 115-10 168-13 95 2 178 7"/>
  <path fill="none" stroke="#4d38ff" stroke-linecap="round" d="M0 550h0c48-3 96-7 145-1s100 21 153 19 108-21 152-25 78 7 127 11 115 0 162-5 75-12 126-14 123-1 177 0 88 0 129-5 87-14 137-3 104 41 155 42 101-27 152-35 105 2 156 9 101 9 143 11 77 2 123 1l203-5"/>
  <path fill="none" stroke="#9d92ff" stroke-linecap="round" d="M0 660h0c40-2 80-5 134-12s123-19 173-12 83 32 124 36 91-13 140-21 96-8 150 1 114 27 161 28 79-15 129-26 116-17 167-7 85 38 135 35 114-36 163-42 83 14 130 18 105-8 159-11 102 4 153 9 104 7 151 7l171-3"/>
  <path fill="none" stroke="#2b13ff" stroke-linecap="round" d="M0 770h0c40 7 81 13 134 8s119-22 170-19 87 24 133 23 102-26 149-31 86 9 132 20 99 18 148 16 93-13 145-17 111-2 163 2 96 9 143 5 97-19 146-18 97 17 147 25 103 7 153 8 97 3 149 1 107-8 156-13 90-7 172-10"/>
  <path fill="none" stroke="#8375ff" stroke-linecap="round" d="M0 880h0l135-3c54-1 122-2 174-7s89-15 130-10 87 26 141 28 116-14 163-12 80 20 123 21 98-17 151-22 105 4 158 1 109-16 154-14 81 21 128 28 106 3 156 1 92-2 141-10 105-23 154-20 92 26 140 32 100-3 192-13"/>
  <path fill="none" stroke="#2107ff" stroke-linecap="round" d="M0 990h0c49 11 97 22 146 23s97-9 142-9 85 9 135 5 109-23 159-30 92-3 141-2 105-1 156-4 98-6 151 1 112 22 158 29 78 4 126 3 111 1 164-5 95-19 135-14 79 29 132 24 120-40 176-46 100 18 145 27 89 4 174-2"/>
  <path fill="none" stroke="#5d4bfe" stroke-linecap="round" d="M0 1100h0c57 11 115 21 161 17s82-23 128-23 102 20 156 23 107-12 154-14 89 10 132 10 86-13 138-11 114 18 168 15 102-24 147-35 89-14 136-7 98 22 148 31a810 810 0 0 0 299-3c51-11 103-27 147-27s79 18 125 25 104 3 201-1"/>
  <path fill="none" stroke="#cec9ff" stroke-linecap="round" d="M0 1210h0c44-9 88-18 141-11s116 29 163 31 77-17 121-23 102 1 155 0 101-9 154-5 110 22 162 22 97-16 144-20 96 5 140 13a581 581 0 0 0 284-9c50-10 94-19 140-20s92 5 147 15 117 22 168 22 90-14 135-19 95 0 186 4"/>
  <path fill="none" stroke="#887aff" stroke-linecap="round" d="M0 1320h0c42-9 84-17 132-19s101 3 149 3 93-4 148 2 122 20 168 17 70-25 120-25 125 23 179 32 88 6 126-1 81-17 135-13 121 23 177 20 103-29 149-30 92 23 141 28 103-8 149-19 86-19 129-14 91 25 141 30 104-3 197-11"/>
  <path fill="none" stroke="#897cff" stroke-linecap="round" d="M0 1430h0c49-4 99-7 143-1s83 22 138 21 127-19 175-24 73 4 120 2 116-15 172-15 98 13 140 22 85 14 133 13 102-7 153-17 99-25 148-21 99 27 149 30 101-14 145-19 80 2 127 2 104-6 155-1 95 21 144 24 104-6 198-16"/>
  <path fill="none" stroke="#2b13ff" stroke-linecap="round" d="M0 1540h0c50-9 100-17 145-16s86 13 137 18 112 3 163-2 90-12 135-6 94 24 148 23 112-22 157-32 78-11 126-5 112 18 163 21 91-4 136-6 97 1 152 8 112 16 162 14 92-17 142-19 108 9 153 10 77-8 122-11 102 0 199 3"/>
  <path fill="none" stroke="#a99fff" stroke-linecap="round" d="M0 1650h0c59 3 118 6 163-2s76-28 117-22 92 36 151 46 126-1 172-12 71-23 116-17 109 29 162 25 96-33 146-38 107 16 160 29 101 17 144 9 82-29 132-28 110 24 157 32 80 1 126-11 104-30 158-35 104 1 153 7 96 11 183 17"/>
  <path fill="none" stroke="#7868ff" stroke-linecap="round" d="M0 1760h0c50 12 99 24 146 19s90-26 141-29 108 14 159 22 95 8 144 8l151 1c47 0 87-1 139-4s118-8 162-7 67 7 115 4 122-16 174-14 82 20 121 19 89-22 147-33 126-12 176-9 83 12 126 18 95 11 146 11 102-3 193-6"/>
  <path fill="none" stroke="#8476ff" stroke-linecap="round" d="M0 1870h0l146 14c52 4 110 6 159 2s90-16 135-20 92-2 140 3 95 11 144 8 101-15 155-18 110 2 158 10 90 19 139 22 107-2 159-9 99-16 147-19 97-1 140-2 78-5 124-2 102 14 156 14 106-12 155-14 96 4 183 11"/>
  <path fill="none" stroke="#a59bff" stroke-linecap="round" d="M0 1980h0c40-5 80-10 130-14s109-6 161-1 98 18 148 25 103 9 153 2 96-23 140-19 86 27 140 28 118-20 166-26 78 2 119 5 94 0 150 0 116 1 168 9 95 21 144 15 103-31 150-35 89 14 139 25 110 14 160 10 91-14 172-24"/>
  <path fill="none" stroke="#b6aeff" stroke-linecap="round" d="M0 2090h0c45-7 89-15 138-17s101 0 151 3 98 6 148 1 104-19 154-11 97 37 150 48 112 2 155-7 69-19 115-19 112 9 166 11 95-3 139-3 89 4 136-3 94-26 151-27 122 16 172 19 84-8 127-7 93 13 144 17 103-1 194-5"/>
</svg>
