<svg xmlns="http://www.w3.org/2000/svg" fill="none" viewBox="0 0 240 240"><circle cx="120" cy="120" r="120" fill="#0061EB"/><circle cx="120" cy="120" r="97" fill="#fff"/><mask id="a" width="194" height="194" x="23" y="23" maskUnits="userSpaceOnUse" style="mask-type:alpha"><circle cx="120" cy="120" r="97" fill="#fff"/></mask><g mask="url(#a)"><path stroke="#0061EB" stroke-linecap="round" stroke-width="3" d="M23.656 107.933c.99 0 1.766-.414 2.681-.75 1.823-.669 3.728-.878 5.585-1.389 2.176-.599 4.37-.862 6.628-.862 4.682 0 9.155.059 13.781.876 11.436 2.018 22.649 5.626 34.344 5.626 3.79 0 8.117.559 11.823-.5a373.96 373.96 0 0 0 7.919-2.376c4.041-1.25 7.817-2.927 11.99-3.82 5.372-1.149 10.576-1.056 16.033-1.056 2.91 0 6.596.64 8.739 2.89 2.181 2.29 3.623 5.14 5.293 7.794 2.291 3.641 5.245 6.092 8.225 9.072 1.438 1.438 3.179 3.427 3.695 5.446.41 1.604 1.056 3.258 1.056 4.932V149.585c0 1.003.265 2.499-.014 3.473-.278.975 2.515 2.89 3.321 3.696 1.819 1.819 3.153 4.233 4.598 6.321 1.799 2.598 3.521 4.273 6.238 6.016 1.28.821 2.64 1.389 3.738 2.487.649.649.738 1.662 1.375 2.389 1.053 1.204 2.007 2.7 2.556 4.182.221.597.93 2.29 1.445 2.612.783.489 1.401 1.466 2.14 2.07.486.398 1.146 1.439 1.75 1.612.854.244 1.789 1.102 2.612 1.514"/><path stroke="#0061EB" stroke-linecap="round" stroke-width="3" d="M24.656 98.93c1.562 0 2.756-.737 4.252-.986 2.203-.367 4.396-.764 6.64-.764 1.964 0 4.04-.109 5.96.389 1.36.352 2.598 1.215 3.905 1.723 2.369.921 4.953.639 7.446.639 3.765 0 7.572-.25 11.365-.25 3.255 0 6.875-.429 10.086.125 3.866.666 7.835 1.028 11.74 1.375 4.445.395 9.528.869 13.88-.25 1.414-.364 2.682-1.015 4.056-1.445 1.522-.475 3.147-.714 4.696-1.111 3.7-.949 7.402-2 11.142-2.82 4.524-.994 9.122-1.126 13.741-1.126 1.524 0 2.943-.26 4.126.861 1.083 1.027 2.157 2.274 3.501 2.946 1.041.52 1.974.444 3.126.444 1.115 0 2.081.343 3.112.514 1.657.277 2.078 3.559 2.654 4.71.69 1.381 1.672 2.48 2.611 3.654.811 1.013 2.121 1.481 3.196 2.126 2.795 1.677 5.303 3.114 7.697 5.39 1.27 1.208 2.865 2.296 4.348 3.224 1.139.711 2.625 1.146 3.626 2.014.559.485 1.64 1.076 1.64 1.876v2.737c0 2.342-2.501 3.698-2.501 6.015v22.396c0 .485-.257 1.362.194 1.362 1.114 0 2.487.849 3.474 1.306 3.177 1.469 6.033 3.728 9.183 5.182 1.616.746 2.422 2.709 3.807 3.793 1.508 1.18 3.471 1.922 4.849 3.223 1.247 1.178 1.953 2.296 2.75 3.89.535 1.07.707 2.207 1.556 3.056.494.494 1.599 1.357 2.196 1.556"/><path stroke="#0061EB" stroke-linecap="round" stroke-width="3" d="M25.111 90.416h8.84c2.222 0 4.12 1.234 6.372 1.234 2.27 0 4.59.41 6.761.41 3.262 0 6.453.823 9.594.823 2.734 0 5.365-.027 8.063.388 1.124.173 2.496.826 3.54 1.348 1.231.615 1.826-.03 2.878-.091 4.825-.284 10.02.582 14.595-.434 2.112-.47 4.195-1.501 6.373-1.622 2.657-.148 5.703.283 8.223-.617 2.744-.98 5.991-.584 8.634-1.759 2.371-1.054 5.229-.913 7.812-.913h16.445c3.084 0 6.257-.411 9.251-.411 2.476 0 4.465.012 6.601 1.233 3.157 1.804 7.793 4.764 9.639 7.994.874 1.53 2.889 1.885 4.111 3.107.653.653 1.073 1.547 1.645 2.261.686.857 1.434 1.274 2.238 2.079 1.763 1.762 3.036 1.434 5.162 2.329 2.638 1.111 4.858.567 5.779 3.792 1.201 4.203.96 8.46 1.211 12.974.229 4.117.822 8.203.822 12.334 0 2.831.411 5.578.411 8.428 0 1.435 1.991 3.003 2.878 4.112 1.191 1.489 2.855 2.659 4.523 3.586 2.438 1.355 4.63 3.703 7.195 4.842.728.324 1.514 1.552 2.261 1.645.673.084 2.237.83 2.787 1.325 1.203 1.083 4.428 2.005 5.025 3.197"/><path stroke="#0061EB" stroke-linecap="round" stroke-width="3" d="M27.578 82.604c12.235 0 24.633.412 36.774.412 6.77 0 14.075-.107 20.58 1.873 3.698 1.125 8.128 1.844 11.626-.229 8.686-5.147 20.601-3.289 30.31-3.289 6.669 0 13.546-1.05 20.124-2.147 1.125-.188 5.93-1.165 6.715.091 1.033 1.654 2.965 3.286 4.385 4.706 1.836 1.835 3.773 4.499 6.19 5.573 3.559 1.581 7.188 1.963 9.251 5.573.506.885 1.589 2.875 1.645 3.883.106 1.914.853 1.89 2.466 2.787 1.356.753 2.538 1.789 3.883 2.558 1.469.839 1.588 2.016 2.376 3.198 2.013 3.019 1.967 7.718 2.353 11.192.671 6.045 7.088 11.25 11.329 15.007 2.804 2.483 5.787 4.965 8.428 7.606 1.074 1.073 1.234 1.792 1.234 3.289 0 2.364-.831 6.09 1.461 7.4 1.837 1.05 2.855 3.084 4.295 4.523.605.606 2.879 2.878 1.233 2.878"/><path stroke="#0061EB" stroke-linecap="round" stroke-width="3" d="M27.989 72.737h29.077c3.328 0 6.537.148 9.822.434 2.566.223 5.045.8 7.628.8 3.637 0 6.892-.294 10.462-.823 3.664-.543 7.086-2.808 10.62-3.906 5.819-1.805 11.393-2.679 17.497-3.06 8.383-.524 16.573-2.49 24.988-2.49 1.927 0 4.738-.522 6.579.091 2.004.668 3.741 2.163 5.664 3.107 2.593 1.272 5.38 2.95 8.086 3.883 1.878.647 3.905.112 5.847.41 5.102.786 8.57 2.207 12.654 5.437 4.257 3.366 6.194 8.523 9.959 12.289 2.096 2.095 3.881 4.277 5.185 7.103 1.683 3.646 6.615 4.61 8.2 8.177 1.077 2.424 1.645 4.464 1.645 7.195 0 2.222.293 4.577.411 6.579.111 1.894.961 3.432 1.827 5.116.995 1.935 1.9 4.083 3.107 5.893 2.881 4.323 5.273 8.29 10.278 9.959"/><path stroke="#0061EB" stroke-linecap="round" stroke-width="3" d="M43.201 53.002c.076-.605 2.052 1.086 2.65 1.257.895.255 3.337.676 3.929 1.416.517.646 1.506.883 2.26 1.05 1.13.251 1.908 1.34 2.902 1.85 1.569.807 3.815 2.96 5.527 3.061 2.839.167 5.153 2.61 7.606 3.7 2.849 1.266 3.982 2.879 7.195 2.879 3.163 0 5.846-.82 8.817-1.668 1.117-.319 2.051-1.794 3.106-2.352 1.254-.664 2.42-1.187 3.7-1.828 2.983-1.491 6.197-3.38 8.84-5.436 2.762-2.148 4.592-5.36 8.429-5.573 3.232-.18 6.353-1.234 9.661-1.234 1.805 0 4.139-.421 5.871.092 1.567.464 3.228.55 4.614-.183 1.248-.661 4.178-.731 5.573-.731 2.091 0 5.156.514 7.172-.206 2.993-1.068 7.069-2.956 10.278-1.53 1.712.761 3.775 1.146 5.528 1.964 2.406 1.123 4.907 2.566 7.401 3.472 1.44.524 3.213 2.82 4.339 3.883 1.335 1.26 2.841 1.906 4.112 3.107 1.712 1.617 3.99 2.546 5.779 4.111 4.339 3.797 10.497 4.811 15.806 6.373 2.093.615 7.299-.369 8.931.936.887.71 2.199 2.06 3.197 2.558"/><path stroke="#0061EB" stroke-linecap="round" stroke-width="3" d="M65.814 38.612c0 1.785-.229 3.7.503 5.345.764 1.72 1.346 3.997 1.553 5.756.406 3.457 3.11 7.45 5.436 9.776.907.907 3.547 1.325 4.842 1.325 2.687 0 2.48-.22 4.112-2.056 1.545-1.739 1.537-4.65 2.558-6.578.945-1.784 2.95-2.706 4.203-4.317 1.773-2.28 2.537-4.97 3.7-7.629.522-1.194.561-2.664 1.462-3.677.474-.534 1.29-.995 1.644-1.44.903-1.128 4.548-1.755 5.939-2.26.928-.338 3.809-1.187 4.34-1.85.574-.718 4.148-.831 5.139-1.051 1.114-.248 3.04-1.466 3.495-2.262 1.475-2.58 6.43-1.943 7.812-4.705M129.541 119.196c1.405 0 3.347-.365 4.705.023.437.125 1.578 2.56 2.079 3.061 3.825 3.825 7.199 8.633 9.981 13.27 6.526 10.877 6.145 24.013 10.37 35.633.968 2.661 3.216 5.434 5.848 6.486 3.308 1.324 5.21 5.603 7.103 8.337 1.809 2.613 1.78 5.702 2.992 8.429 1.016 2.285 3.108 4.389 4.203 6.578M95 133H84.842c-3.508 0-7 .848-10.414.848-4.143 0-8.866 3.189-12.58 4.879-4.458 2.03-8.88 3.585-13.21 5.963-2.36 1.296-5.009 2.41-6.896 4.431-1.857 1.989-1.563 4.459-2.726 6.576-1.599 2.912-5.894 4.25-9.016 5.303"/><path stroke="#0061EB" stroke-linecap="round" stroke-width="3" d="M130.685 119.125h-.54c-.188 0-.355.08-.52.08-.431 0-.725.097-1.118.24-.428.155-.754.48-1.222.48-.228 0-.45.183-.64.288-.101.056-.44.152-.48.232"/><rect width="119" height="17" x="10" y="117" fill="#5B94E6" rx="8.5"/><rect width="111.791" height="19.493" fill="#5B94E6" rx="9.747" transform="rotate(-90.167 169.246 59.414) skewX(-.046)"/></g><rect width="10" height="10" x="23" y="115" fill="#fff" rx="1"/><rect width="10" height="10" x="35" y="125" fill="#fff" rx="1"/><rect width="10" height="10" x="47" y="115" fill="#fff" rx="1"/><rect width="10" height="10" x="60" y="125" fill="#fff" rx="1"/></svg>
